<svg xmlns="http://www.w3.org/2000/svg" viewBox="0 0 221.5 54"><style>.st0{fill:#fff}</style><path class="st0" d="M135 11.3v30c0 .4.3.8.8.8.4 0 .8-.3.8-.8v-30c0-.4-.3-.8-.8-.8s-.8.4-.8.8M69.2 27.7c-.4-.7.1-1.3.1-1.3l5.1-5.2c.6-.6-.3-.6-.3-.6h-4.7c-.8 0-1.4.6-1.4.6l-4.7 5c-.6.6-.6-.2-.6-.2V15c0-.8-.8-.8-.8-.8h-3.6c-.8 0-.8.8-.8.8v22.8c0 .8.8.8.8.8h3.6c.8 0 .8-.8.8-.8v-4c0-.8.6-1.4.6-1.4l1.7-1.6 4.2 7.1c.4.7 1.3.7 1.3.7H75c.8 0 .4-.7.4-.7l-6.2-10.2zM53.8 37.8V21.3c0-.8-.8-.8-.8-.8h-3.6c-.8 0-.8.8-.8.8v16.5c0 .8.8.8.8.8H53c.8 0 .8-.8.8-.8zm-.1-20.5V15s0-.8-.8-.8h-3.5s-.8 0-.8.8v2.4s0 .8.8.8h3.5c0-.1.8-.1.8-.9zm-9 20.5V15c0-.8-.8-.8-.8-.8h-3.7c-.8 0-.8.8-.8.8v22.8c0 .8.8.8.8.8h3.7c.8 0 .8-.8.8-.8zm-8.3-1s.5-.5-.1-1l-2.9-2.6c1.3-2 2.1-4.3 2.1-6.9 0-6.8-5.5-12.2-12.2-12.2-6.8 0-12.2 5.5-12.2 12.2 0 6.8 5.5 12.2 12.2 12.2 2.5 0 4.8-.7 6.7-2l3.2 2.8s.5.5 1-.1l2.2-2.4zm-6.1-10.4c0 3.9-3.2 7.1-7.1 7.1-3.9 0-7.1-3.2-7.1-7.1 0-3.9 3.2-7.1 7.1-7.1 3.9 0 7.1 3.2 7.1 7.1zM115.7 38.5l-4.5-3.7c1.6-2.5 2.5-5.4 2.5-8.5 0-8.8-7.1-16-16-16-8.8 0-16 7.1-16 16s7.1 16 16 16c3.4 0 6.6-1.1 9.2-2.9l4.8 4s.7.6 1.3-.1l2.8-3.4c0-.1.6-.8-.1-1.4zm-8.2-12.3c0 5.4-4.4 9.8-9.8 9.8s-9.8-4.4-9.8-9.8 4.4-9.8 9.8-9.8 9.8 4.4 9.8 9.8z"/><path class="st0" d="M91.4 26.2c0-3.5 2.8-6.3 6.3-6.3s6.3 2.8 6.3 6.3-2.8 6.3-6.3 6.3-6.3-2.8-6.3-6.3z"/><g><path class="st0" d="M115.2 15.4c0-.8.7-1.5 1.5-1.5s1.5.7 1.5 1.5-.7 1.5-1.5 1.5-1.5-.6-1.5-1.5m1.5-1.3c-.7 0-1.3.6-1.3 1.3 0 .7.6 1.3 1.3 1.3.7 0 1.3-.6 1.3-1.3 0-.7-.5-1.3-1.3-1.3m-.3 2.2h-.2v-1.9h.7c.3 0 .6.2.6.5s-.2.5-.4.5l.5.8h-.3l-.5-.8h-.4v.9zm0-1h.4c.2 0 .4-.1.4-.3 0-.2-.2-.3-.4-.3h-.4v.6z"/></g><g><path class="st0" d="M169.6 22.8c-.6-2.6-3.2-4.4-6.1-4.4-4.8 0-6.9 3.8-6.9 8s2.1 8 6.9 8c3.3 0 5.9-2.3 6.3-5.7l2.7.3c-.9 4.5-4.8 7.4-9 7.4-6 0-9.7-4.1-9.7-10.1s3.7-10.1 9.7-10.1c4.1 0 7.6 2 8.7 5.9l-2.6.7zM180.1 22.8c4 0 6.3 2.9 6.3 6.8s-2.3 6.8-6.3 6.8-6.3-2.9-6.3-6.8 2.4-6.8 6.3-6.8zm0 11.8c3.2 0 3.9-2.9 3.9-5s-.8-5-3.9-5c-3.2 0-3.9 2.9-3.9 5s.8 5 3.9 5zM188.2 23.1h2.2v2.2h.1c1.1-1.8 2.3-2.4 4.6-2.4v2.4c-.4 0-1.1-.1-1.5-.1-2.1 0-3.1 2-3.1 3.5v7.2h-2.2V23.1zM197.9 30.1c0 2.6 1.4 4.6 3.9 4.6 1.9 0 3.1-1 3.6-2.9l2.2.3c-.8 2.9-3 4.3-5.9 4.3-4 0-6.2-2.9-6.2-6.7 0-4.2 2-6.9 6.2-6.9 4 0 6 2.9 6 6.7v.5h-9.8zm7.4-1.7c-.3-2.1-1.4-3.8-3.9-3.8-2.2 0-3.4 1.9-3.5 3.8h7.4z"/></g><g><path class="st0" d="M208.3 24.6c0-.6.5-1.1 1.1-1.1.6 0 1.1.5 1.1 1.1 0 .6-.5 1.1-1.1 1.1-.6 0-1.1-.5-1.1-1.1m1.1-1c-.5 0-1 .4-1 1s.4 1 1 1c.5 0 1-.4 1-1s-.4-1-1-1m-.2 1.6h-.2v-1.4h.5c.2 0 .4.1.4.4 0 .2-.1.4-.3.4l.4.6h-.2l-.4-.6h-.3v.6zm0-.7h.3c.2 0 .3 0 .3-.3 0-.2-.1-.3-.3-.3h-.3v.6z"/></g></svg>